# xmcd
#
# Track frame offsets:
#	182
#	13265
#	26802
#	39392
#	52840
#	65192
#	77642
#	90127
#	103615
#	115682
#	132715
#	143737
#	155132
#	166575
#	178842
#	189752
#	202802
#	215855
#	226680
#	240100
#
# Disc length: 3353
#
# Revision: 5
# Processed by: cddbd v1.5.1PL0 Copyright (c) Steve Scherf et al.
# Submitted via: dBpowerAMP V4.0
# Normalized: r4:DSETVAR1,TDELIM( - )
#
DISCID=010d1714
DTITLE=Various Artist - Magic Soul 2
DYEAR=1900
DGENRE=Soul
TTITLE0=Ray Charles - I Got A Woman
TTITLE1=The Miracles - You've Really Got A Hold On Me
TTITLE2=Martha and The Vandellas - (Love is Like a) Heatwave
TTITLE3=Marvin Gaye - How Sweet It Is
TTITLE4=Drifters - Under The Boardwalk
TTITLE5=Solomon Burke - Everybody Needs Somebody to Love
TTITLE6=The Four Tops - I Can't Help Myself
TTITLE7=Junior Walker and The All Stars - Shotgun
TTITLE8=Diana Ross and The Supremes - You Keep Me Hangin' On
TTITLE9=Otis Redding - Try A Little Tenderness
TTITLE10=Wilson Pickett - Land Of 1000 Dances
TTITLE11=Sam and Dave - Hold On ! I'm Coming
TTITLE12=The Temptations - Ain't Too Proud To Beg
TTITLE13=Diana Ross and The Supremes - You Can't Hurry Love
TTITLE14=Aretha Franklin - Respect
TTITLE15=Gladys Knight and The Pips - I Heard It Through The Grapevine
TTITLE16=Martha and The Vandellas - Jimmy Mack
TTITLE17=Booker T. and The MG's - Hip Hug-Her
TTITLE18=King Curtis - Memphis Soul Stew
TTITLE19=James Brown - I Got The Feeling
EXTD=
EXTT0=
EXTT1=
EXTT2=
EXTT3=
EXTT4=
EXTT5=
EXTT6=
EXTT7=
EXTT8=
EXTT9=
EXTT10=
EXTT11=
EXTT12=
EXTT13=
EXTT14=
EXTT15=
EXTT16=
EXTT17=
EXTT18=
EXTT19=
PLAYORDER=
